<?xml version="1.0" encoding="iso-8859-1"?>
<!-- Uploaded to: SVG Repo, www.svgrepo.com, Generator: SVG Repo Mixer Tools -->
<svg version="1.1" id="Layer_1" xmlns="http://www.w3.org/2000/svg" xmlns:xlink="http://www.w3.org/1999/xlink" 
	 viewBox="0 0 512 512" xml:space="preserve">
<g>
	<path style="fill:#578CAD;" d="M213.201,285.631l0.001-0.003c0,0-94.804-4.622-94.804,68.224c0,37.194,0,61.016,0,75.448
		c0,18.23,13.997,19.018,15.842,19.043h30.881V344.114C165.121,315.14,185.8,291.002,213.201,285.631z"/>
	<path style="fill:#578CAD;" d="M292.478,491.187c0,11.493,9.316,20.813,20.813,20.813h15.034c11.493,0,20.813-9.32,20.813-20.813
		V446.09h-56.661V491.187z"/>
	<path style="fill:#578CAD;" d="M162.867,446.09v45.096c0,11.493,9.319,20.813,20.814,20.813h15.036
		c11.493,0,20.813-9.32,20.813-20.813V446.09H162.867z"/>
	<path style="fill:#578CAD;" d="M299.483,285.631l-0.001-0.003c0,0,94.804-4.622,94.804,68.224c0,37.194,0,61.016,0,75.448
		c0,18.23-13.997,19.018-15.841,19.043h-30.883V344.114C347.563,315.14,326.887,291.002,299.483,285.631z"/>
</g>
<path style="fill:#CAE9F7;" d="M289.53,284.507h-67.057c-32.921,0-59.606,26.689-59.606,59.607v104.229h186.271V344.114
	C349.138,311.195,322.451,284.507,289.53,284.507z"/>
<g>
	<path style="opacity:0.1;fill:#231F20;enable-background:new    ;" d="M310.507,491.187V446.09h-18.029v45.096
		c0,11.493,9.316,20.813,20.813,20.813h15.034c0.505,0,1.001-0.041,1.498-0.075C319.028,511.154,310.507,502.175,310.507,491.187z"
		/>
	<path style="opacity:0.1;fill:#231F20;enable-background:new    ;" d="M180.896,491.187V446.09h-18.029v45.096
		c0,11.493,9.319,20.813,20.814,20.813h15.036c0.505,0,1.001-0.041,1.496-0.075C189.421,511.155,180.896,502.175,180.896,491.187z"
		/>
	<path style="opacity:0.1;fill:#231F20;enable-background:new    ;" d="M136.427,429.3c0-14.432,0-38.254,0-75.448
		c0-49.209,43.258-63.064,71.333-66.876c1.781-0.528,3.595-0.983,5.441-1.344l0.001-0.003c0,0-94.804-4.622-94.804,68.224
		c0,37.194,0,61.016,0,75.448c0,18.23,13.997,19.018,15.842,19.043h18.029C150.424,448.318,136.427,447.529,136.427,429.3z"/>
</g>
<rect x="162.872" y="394.61" style="fill:#90C8EC;" width="186.273" height="53.732"/>
<path style="opacity:0.1;fill:#231F20;enable-background:new    ;" d="M240.504,284.507h-18.029
	c-32.921,0-59.606,26.689-59.606,59.607v104.229h18.029V344.114C180.896,311.195,207.583,284.507,240.504,284.507z"/>
<circle style="fill:#90C8EC;" cx="256.003" cy="143.376" r="143.376"/>
<path style="fill:#CAE9F7;" d="M329.429,95.617H182.577c-11.492,0-20.813,9.319-20.813,20.813v54.344
	c0,11.495,9.32,20.813,20.813,20.813h92.332h29.299h25.219c11.495,0,20.811-9.319,20.811-20.813V116.43
	C350.239,104.936,340.924,95.617,329.429,95.617z"/>
<g>
	<path style="opacity:0.1;fill:#231F20;enable-background:new    ;" d="M130.651,143.38c0-76.158,59.381-138.437,134.367-143.089
		C262.036,0.105,259.031,0,256.003,0c-79.187,0-143.381,64.193-143.381,143.38s64.195,143.38,143.381,143.38
		c3.029,0,6.033-0.105,9.014-0.291C190.032,281.817,130.651,219.539,130.651,143.38z"/>
	<path style="opacity:0.1;fill:#231F20;enable-background:new    ;" d="M179.795,170.775v-54.344
		c0-11.495,9.32-20.813,20.813-20.813h-18.03c-11.492,0-20.813,9.319-20.813,20.813v54.344c0,11.495,9.32,20.813,20.813,20.813
		h18.03C189.114,191.587,179.795,182.27,179.795,170.775z"/>
</g>
</svg>